HIERARCHY
ROOT Hip
{
   OFFSET 0.00000 0.00000 0.00000
   CHANNELS 6 Xposition Yposition Zposition Zrotation Yrotation Xrotation
   JOINT Head
   {
      OFFSET 0.000000 20.192601 0.000000
      CHANNELS 3 Zrotation Yrotation Xrotation
      End Site
      {
         OFFSET 0.000000 12.030901 0.000000
      }
      JOINT LeftShoulder
      {
         OFFSET 6.676410 0.000000 0.000000
         CHANNELS 3 Zrotation Yrotation Xrotation
         JOINT LeftHand
         {
            OFFSET 0.000000 -9.756300 0.000000
            CHANNELS 3 Zrotation Yrotation Xrotation
            End Site
            {
               OFFSET 0.000000 -10.685350 0.000000
            }
         }
      }
      JOINT RightShoulder
      {
         OFFSET -7.115520 0.000000 0.000000
         CHANNELS 3 Zrotation Yrotation Xrotation
         JOINT RghtHand
         {
            OFFSET 0.000000 -11.690050 0.000000
            CHANNELS 3 Zrotation Yrotation Xrotation
            End Site
            {
               OFFSET 0.000000 -8.007680 0.000000
            }
         }
      }
   }
   JOINT LeftHip
   {
      OFFSET 7.064605 0.000000 0.000000
      CHANNELS 3 Zrotation Yrotation Xrotation
      JOINT LeftKnee
      {
         OFFSET 0.000000 -19.913799 0.000000
         CHANNELS 3 Zrotation Yrotation Xrotation
         JOINT LeftFoot
         {
            OFFSET 0.000000 -15.183551 0.000000
            CHANNELS 3 Zrotation Yrotation Xrotation
            End Site
            {
               OFFSET 0.000000 0.000000 9.894851
            }
         }
      }
   }
   JOINT RightHip
   {
      OFFSET -7.064605 0.000000 0.000000
      CHANNELS 3 Zrotation Yrotation Xrotation
      JOINT RightKnee
      {
         OFFSET 0.000000 -18.022551 0.000000
         CHANNELS 3 Zrotation Yrotation Xrotation
         JOINT RightFoot
         {
            OFFSET 0.000000 -15.456401 0.000000
            CHANNELS 3 Zrotation Yrotation Xrotation
            End Site
            {
               OFFSET 0.000000 0.000000 9.939050
            }
         }
      }
   }
}
MOTION
Frames: 14
Frame Time: 0.016670
7.577972 76.921557 2.621674 26.580282 25.851866 250.782198 -8.005978 3.945904 17.250368 3.073133 -70.447739 92.790859 64.667309 179.143813 136.254255 -49.638359 -7.357991 27.895594 -82.437890 6.377615 50.961264 -84.347638 -12.535182 84.861269 61.940807 -53.213942 -11.729936 7.522880 -50.002845 -16.587065 -107.862832 -30.202373 86.718766 19.120771 -37.060897 40.787120 -37.007495 -26.616825 32.260237
9.433203 76.869396 1.738600 24.101805 29.675738 251.252579 -8.825349 3.496353 17.616897 4.326160 -64.770602 92.787621 65.900588 180.965985 137.621372 -48.428845 -6.589468 27.274964 -81.313136 5.166324 50.705528 -83.417831 -10.836980 85.651665 57.262141 -54.383431 -12.668852 8.229282 -50.588575 -16.005129 -108.970914 -26.729909 86.099773 17.713042 -36.021844 39.352473 -36.851394 -26.789370 32.133151
11.304302 76.634420 0.842435 21.548507 33.398478 251.577041 -10.222431 2.918903 18.124957 5.930675 -60.255014 93.331052 66.250642 183.725040 140.671270 -47.290666 -5.862120 25.528964 -80.842829 4.792010 50.681438 -81.510057 -8.916850 86.659377 52.909459 -55.091869 -13.203104 9.185014 -50.627701 -14.797016 -109.774404 -23.132182 85.405908 16.960943 -34.522081 38.011587 -37.026913 -26.550013 31.346566
13.251496 76.186889 -0.102007 18.956582 36.932738 252.297407 -10.491475 1.028146 17.083242 6.729992 -54.298631 92.939511 69.014916 184.605233 143.907537 -48.970957 -4.036237 23.448227 -79.770360 3.629313 50.489219 -78.295374 -7.293806 87.337902 48.949394 -55.991514 -12.937854 10.025321 -50.802875 -13.749823 -109.552730 -20.427117 84.236798 15.673653 -32.858237 37.361866 -36.801800 -26.955610 31.444897
15.232452 75.522927 -1.077552 16.213824 40.882644 252.757735 -11.605451 0.742505 16.260473 8.177582 -51.901815 92.654371 72.147049 185.060246 146.236754 -49.595004 -3.394859 22.441085 -77.891525 1.506247 50.685758 -75.968902 -5.704255 88.429851 46.016764 -56.628600 -12.852874 10.342073 -50.943277 -13.389818 -109.278198 -17.489522 82.918401 14.525377 -31.835092 36.996628 -35.916434 -27.507368 32.694350
17.266118 74.619163 -2.074139 13.885496 45.500617 253.195796 -13.441725 4.112685 16.504350 9.345827 -56.796711 92.799677 71.425303 187.931945 150.033192 -49.226034 -4.571490 24.200904 -75.535240 -1.468819 52.336745 -74.465448 -3.931710 89.373462 43.865626 -57.416988 -12.938380 10.720605 -51.409700 -13.058208 -108.527833 -14.295624 80.692442 13.663085 -31.475301 37.016162 -34.203279 -28.258572 35.433222
19.320452 73.469075 -3.089165 11.774718 49.522519 254.791901 -14.216312 3.207228 13.480621 8.959002 -53.162456 92.407993 76.727354 186.952400 154.352727 -51.903229 -2.585081 24.487900 -73.220420 -4.231032 52.847803 -73.089752 -2.841095 90.793937 42.830153 -57.321393 -12.929554 11.477091 -51.205245 -11.913180 -106.249501 -12.460385 79.027618 12.994830 -31.015063 36.317960 -32.140220 -29.055235 38.824233
21.373024 72.063016 -4.143327 9.907144 53.826778 256.590290 -14.939246 4.262168 11.185060 9.236472 -51.388171 92.103359 80.561289 186.539734 157.221993 -53.200279 -1.500802 26.523402 -70.975685 -6.822742 54.365297 -70.913913 -1.770785 92.117375 42.068832 -56.851261 -12.724650 13.623086 -50.738675 -8.740199 -102.249899 -10.707820 76.930695 13.340358 -30.273529 35.259004 -30.646164 -30.160903 41.627124
23.407244 70.390853 -5.246063 9.342049 58.185015 259.788677 -16.278863 6.484792 9.384249 9.605900 -51.143623 91.672340 83.319996 186.402542 159.274711 -52.676902 -1.736146 28.618209 -69.660601 -8.194885 56.420808 -70.848712 -0.589349 93.917512 43.128178 -54.932537 -13.709981 16.037827 -49.429386 -4.913665 -95.830225 -8.984920 73.535060 14.506876 -30.313151 34.825533 -30.416250 -32.826613 43.382247
25.421328 68.479484 -6.445616 8.361099 62.366894 262.661973 -17.666604 8.580428 8.576615 8.547275 -52.600762 90.411255 84.585507 186.470530 161.292663 -51.664883 -3.231729 29.882901 -68.583111 -9.372868 58.806686 -68.700290 -0.013386 94.600982 43.051734 -54.957007 -13.228527 17.072992 -49.540831 -3.473012 -85.439752 -6.467151 69.194529 14.934140 -31.705803 35.161182 -30.507272 -36.998718 45.574307
27.372377 66.331152 -7.710985 9.770978 66.451382 268.171614 -19.597662 9.457024 6.240794 10.605300 -49.461819 91.875566 87.511662 186.085471 162.087246 -49.951062 -3.659136 30.028500 -68.719203 -8.866268 59.528664 -64.243475 0.019134 92.813262 40.905795 -57.826752 -11.322804 18.888572 -52.068400 -1.646304 -76.200985 -3.122038 66.451990 18.720130 -35.056427 32.182284 -31.873003 -40.089659 45.253903
29.300823 63.900732 -9.048917 13.501987 70.404040 276.454502 -21.482509 10.619331 3.607305 11.186819 -49.431896 91.784731 89.311075 186.165999 163.974455 -49.546926 -4.033264 30.306086 -68.725671 -8.524652 60.743160 -63.087193 -0.003295 91.941798 40.106195 -59.213567 -11.490695 21.706582 -53.752226 1.764075 -65.440411 1.990976 63.804991 24.356328 -40.868836 27.042657 -31.943681 -42.004953 46.175207
31.155097 61.238302 -10.368382 18.581916 74.053587 286.478023 -23.516177 12.033418 0.507444 11.427115 -52.550663 91.865614 89.681224 186.538873 166.419308 -49.042958 -4.636751 31.916794 -67.886896 -9.392745 62.419166 -61.551356 -0.800871 91.317771 38.371340 -61.211322 -11.963373 25.638811 -56.196420 6.531124 -54.235926 6.992144 63.124130 30.970550 -48.673632 17.959287 -31.564261 -42.979614 47.267651
31.714723 58.279256 -11.297901 18.726774 74.638859 291.153807 -22.550423 13.744927 -3.442883 10.276394 -55.715602 90.343657 93.587266 190.619692 167.855013 -46.716588 -2.500954 35.154553 -66.294246 -15.411555 64.627428 -61.490916 -2.409550 91.388669 37.720563 -64.139322 -12.550934 27.085585 -60.347815 8.498149 -42.750260 9.294030 60.635025 35.176038 -62.926273 10.827706 -27.214407 -45.738908 47.108969
